<svg width="51" height="51" viewBox="0 0 51 51" fill="none" xmlns="http://www.w3.org/2000/svg">
<path fill-rule="evenodd" clip-rule="evenodd" d="M29.0658 13.8939C29.4555 13.5026 30.0887 13.5013 30.48 13.8911L32.0071 15.4121C32.398 15.8016 32.3996 16.4341 32.0106 16.8256L23.192 25.6984L32.0456 34.5363C32.4361 34.9262 32.437 35.5588 32.0476 35.9498L30.5265 37.4768C30.1368 37.8681 29.5036 37.8694 29.1123 37.4796L17.2962 25.71L29.0658 13.8939Z" fill="#C2D1D9"/>
<mask id="mask0_1_717" style="mask-type:luminance" maskUnits="userSpaceOnUse" x="17" y="13" width="16" height="25">
<path fill-rule="evenodd" clip-rule="evenodd" d="M29.0658 13.8939C29.4555 13.5026 30.0887 13.5013 30.48 13.8911L32.0071 15.4121C32.398 15.8016 32.3996 16.4341 32.0106 16.8256L23.192 25.6984L32.0456 34.5363C32.4361 34.9262 32.437 35.5588 32.0476 35.9498L30.5265 37.4768C30.1368 37.8681 29.5036 37.8694 29.1123 37.4796L17.2962 25.71L29.0658 13.8939Z" fill="white"/>
</mask>
<g mask="url(#mask0_1_717)">
<rect x="0.580078" y="0.74292" width="50" height="50" transform="rotate(-0.113077 0.580078 0.74292)" fill="#C2D1D9"/>
</g>
<rect x="48.0801" y="0.64917" width="2.5" height="50" transform="rotate(-0.113077 48.0801 0.64917)" fill="#C2D1D9"/>
</svg>
