<svg width="51" height="51" viewBox="0 0 51 51" fill="none" xmlns="http://www.w3.org/2000/svg">
<path fill-rule="evenodd" clip-rule="evenodd" d="M20.917 13.3178C20.5257 12.9281 19.8925 12.9293 19.5028 13.3206L17.9817 14.8477C17.5923 15.2387 17.5932 15.8712 17.9838 16.2611L26.8373 25.0991L18.0187 33.9719C17.6297 34.3633 17.6313 34.9959 18.0223 35.3853L19.5493 36.9064C19.9406 37.2961 20.5738 37.2949 20.9635 36.9036L32.7331 25.0874L20.917 13.3178Z" fill="#006634"/>
<mask id="mask0_1_689" style="mask-type:luminance" maskUnits="userSpaceOnUse" x="17" y="13" width="16" height="25">
<path fill-rule="evenodd" clip-rule="evenodd" d="M20.917 13.3178C20.5257 12.9281 19.8925 12.9293 19.5028 13.3206L17.9817 14.8477C17.5923 15.2387 17.5932 15.8712 17.9838 16.2611L26.8373 25.0991L18.0187 33.9719C17.6297 34.3633 17.6313 34.9959 18.0223 35.3853L19.5493 36.9064C19.9406 37.2961 20.5738 37.2949 20.9635 36.9036L32.7331 25.0874L20.917 13.3178Z" fill="white"/>
</mask>
<g mask="url(#mask0_1_689)">
<rect x="0.57959" y="0.150879" width="50" height="50" transform="rotate(-0.113077 0.57959 0.150879)" fill="#C2D1D9"/>
</g>
<rect x="48.0796" y="0.0571289" width="2.5" height="50" transform="rotate(-0.113077 48.0796 0.0571289)" fill="#C2D1D9"/>
</svg>
