<svg width="326" height="40" viewBox="0 0 326 40" fill="none" xmlns="http://www.w3.org/2000/svg">
<mask id="mask0_1_945" style="mask-type:luminance" maskUnits="userSpaceOnUse" x="0" y="0" width="326" height="40">
<rect width="326" height="40" rx="3" fill="white"/>
</mask>
<g mask="url(#mask0_1_945)">
<rect width="326" height="40" fill="white"/>
<path fill-rule="evenodd" clip-rule="evenodd" d="M2 0C0.895431 0 0 0.895431 0 2V38C0 39.1046 0.895436 40 2.00001 40H324C325.105 40 326 39.1046 326 38V2C326 0.895431 325.105 0 324 0H2ZM1 3C1 1.89543 1.89543 1 3 1H323C324.105 1 325 1.89543 325 3V37C325 38.1046 324.105 39 323 39H3C1.89543 39 1 38.1046 1 37V3Z" fill="#C2D1D9"/>
<mask id="mask1_1_945" style="mask-type:luminance" maskUnits="userSpaceOnUse" x="0" y="0" width="326" height="40">
<path fill-rule="evenodd" clip-rule="evenodd" d="M2 0C0.895431 0 0 0.895431 0 2V38C0 39.1046 0.895436 40 2.00001 40H324C325.105 40 326 39.1046 326 38V2C326 0.895431 325.105 0 324 0H2ZM1 3C1 1.89543 1.89543 1 3 1H323C324.105 1 325 1.89543 325 3V37C325 38.1046 324.105 39 323 39H3C1.89543 39 1 38.1046 1 37V3Z" fill="white"/>
</mask>
<g mask="url(#mask1_1_945)">
<rect width="326" height="40" fill="#C2D1D9"/>
</g>
<path d="M10.204 25V15.298H16.126V16.46H11.562V19.344H15.622V20.478H11.562V23.838H16.476V25H10.204ZM18.118 17.93C18.4167 17.8553 18.8134 17.776 19.308 17.692C19.8027 17.608 20.372 17.566 21.016 17.566C21.5947 17.566 22.0754 17.65 22.458 17.818C22.8407 17.9767 23.144 18.2053 23.368 18.504C23.6014 18.7933 23.7647 19.1433 23.858 19.554C23.9514 19.9647 23.998 20.4173 23.998 20.912V25H22.696V21.192C22.696 20.744 22.6634 20.3613 22.598 20.044C22.542 19.7267 22.444 19.47 22.304 19.274C22.164 19.078 21.9774 18.938 21.744 18.854C21.5107 18.7607 21.2214 18.714 20.876 18.714C20.736 18.714 20.5914 18.7187 20.442 18.728C20.2927 18.7373 20.148 18.7513 20.008 18.77C19.8774 18.7793 19.756 18.7933 19.644 18.812C19.5414 18.8307 19.4667 18.8447 19.42 18.854V25H18.118V17.93ZM27.3751 17.72H30.1331V18.812H27.3751V22.172C27.3751 22.536 27.4031 22.8393 27.4591 23.082C27.5151 23.3153 27.5991 23.502 27.7111 23.642C27.8231 23.7727 27.9631 23.866 28.1311 23.922C28.2991 23.978 28.4951 24.006 28.7191 24.006C29.1111 24.006 29.4238 23.964 29.6571 23.88C29.8998 23.7867 30.0678 23.7213 30.1611 23.684L30.4131 24.762C30.2824 24.8273 30.0538 24.9067 29.7271 25C29.4004 25.1027 29.0271 25.154 28.6071 25.154C28.1124 25.154 27.7018 25.0933 27.3751 24.972C27.0578 24.8413 26.8011 24.65 26.6051 24.398C26.4091 24.146 26.2691 23.838 26.1851 23.474C26.1104 23.1007 26.0731 22.6713 26.0731 22.186V15.69L27.3751 15.466V17.72ZM31.2472 21.374C31.2472 20.73 31.3405 20.17 31.5272 19.694C31.7139 19.2087 31.9612 18.8073 32.2692 18.49C32.5772 18.1727 32.9319 17.9347 33.3332 17.776C33.7345 17.6173 34.1452 17.538 34.5652 17.538C35.5452 17.538 36.2965 17.846 36.8192 18.462C37.3419 19.0687 37.6032 19.9973 37.6032 21.248C37.6032 21.304 37.6032 21.3787 37.6032 21.472C37.6032 21.556 37.5985 21.6353 37.5892 21.71H32.6052C32.6612 22.466 32.8805 23.04 33.2632 23.432C33.6459 23.824 34.2432 24.02 35.0552 24.02C35.5125 24.02 35.8952 23.9827 36.2032 23.908C36.5205 23.824 36.7585 23.7447 36.9172 23.67L37.0992 24.762C36.9405 24.846 36.6605 24.9347 36.2592 25.028C35.8672 25.1213 35.4192 25.168 34.9152 25.168C34.2805 25.168 33.7299 25.0747 33.2632 24.888C32.8059 24.692 32.4279 24.426 32.1292 24.09C31.8305 23.754 31.6065 23.3573 31.4572 22.9C31.3172 22.4333 31.2472 21.9247 31.2472 21.374ZM36.2452 20.66C36.2545 20.072 36.1052 19.5913 35.7972 19.218C35.4985 18.8353 35.0832 18.644 34.5512 18.644C34.2525 18.644 33.9865 18.7047 33.7532 18.826C33.5292 18.938 33.3379 19.0873 33.1792 19.274C33.0205 19.4607 32.8945 19.6753 32.8012 19.918C32.7172 20.1607 32.6612 20.408 32.6332 20.66H36.2452ZM42.1615 17.566C42.2735 17.566 42.3995 17.5753 42.5395 17.594C42.6888 17.6033 42.8335 17.622 42.9735 17.65C43.1135 17.6687 43.2395 17.692 43.3515 17.72C43.4728 17.7387 43.5615 17.7573 43.6175 17.776L43.3935 18.91C43.2908 18.8727 43.1182 18.8307 42.8755 18.784C42.6422 18.728 42.3388 18.7 41.9655 18.7C41.7228 18.7 41.4802 18.728 41.2375 18.784C41.0042 18.8307 40.8502 18.8633 40.7755 18.882V25H39.4735V18.028C39.7815 17.916 40.1642 17.8133 40.6215 17.72C41.0788 17.6173 41.5922 17.566 42.1615 17.566ZM47.2601 26.358C47.3628 26.4047 47.4935 26.4467 47.6521 26.484C47.8201 26.5307 47.9835 26.554 48.1421 26.554C48.6555 26.554 49.0568 26.4373 49.3461 26.204C49.6355 25.98 49.8968 25.6113 50.1301 25.098C49.5421 23.978 48.9915 22.7927 48.4781 21.542C47.9741 20.282 47.5541 19.008 47.2181 17.72H48.6181C48.7208 18.14 48.8421 18.5927 48.9821 19.078C49.1315 19.5633 49.2948 20.0627 49.4721 20.576C49.6495 21.0893 49.8408 21.6027 50.0461 22.116C50.2515 22.6293 50.4661 23.124 50.6901 23.6C51.0448 22.62 51.3528 21.6493 51.6141 20.688C51.8755 19.7267 52.1228 18.7373 52.3561 17.72H53.7001C53.3641 19.092 52.9908 20.4127 52.5801 21.682C52.1695 22.942 51.7261 24.1227 51.2501 25.224C51.0635 25.644 50.8675 26.0033 50.6621 26.302C50.4661 26.61 50.2468 26.862 50.0041 27.058C49.7615 27.254 49.4861 27.3987 49.1781 27.492C48.8795 27.5853 48.5388 27.632 48.1561 27.632C48.0535 27.632 47.9461 27.6227 47.8341 27.604C47.7221 27.5947 47.6101 27.576 47.4981 27.548C47.3955 27.5293 47.2975 27.506 47.2041 27.478C47.1201 27.45 47.0595 27.4267 47.0221 27.408L47.2601 26.358ZM61.4991 21.36C61.4991 21.9387 61.4151 22.4613 61.2471 22.928C61.0791 23.3947 60.8411 23.796 60.5331 24.132C60.2345 24.468 59.8751 24.7293 59.4551 24.916C59.0351 25.0933 58.5778 25.182 58.0831 25.182C57.5885 25.182 57.1311 25.0933 56.7111 24.916C56.2911 24.7293 55.9271 24.468 55.6191 24.132C55.3205 23.796 55.0871 23.3947 54.9191 22.928C54.7511 22.4613 54.6671 21.9387 54.6671 21.36C54.6671 20.7907 54.7511 20.2727 54.9191 19.806C55.0871 19.33 55.3205 18.924 55.6191 18.588C55.9271 18.252 56.2911 17.9953 56.7111 17.818C57.1311 17.6313 57.5885 17.538 58.0831 17.538C58.5778 17.538 59.0351 17.6313 59.4551 17.818C59.8751 17.9953 60.2345 18.252 60.5331 18.588C60.8411 18.924 61.0791 19.33 61.2471 19.806C61.4151 20.2727 61.4991 20.7907 61.4991 21.36ZM60.1411 21.36C60.1411 20.5387 59.9545 19.89 59.5811 19.414C59.2171 18.9287 58.7178 18.686 58.0831 18.686C57.4485 18.686 56.9445 18.9287 56.5711 19.414C56.2071 19.89 56.0251 20.5387 56.0251 21.36C56.0251 22.1813 56.2071 22.8347 56.5711 23.32C56.9445 23.796 57.4485 24.034 58.0831 24.034C58.7178 24.034 59.2171 23.796 59.5811 23.32C59.9545 22.8347 60.1411 22.1813 60.1411 21.36ZM69.1269 24.79C68.8283 24.8647 68.4316 24.944 67.9369 25.028C67.4516 25.112 66.8869 25.154 66.2429 25.154C65.6829 25.154 65.2116 25.0747 64.8289 24.916C64.4463 24.748 64.1383 24.5147 63.9049 24.216C63.6716 23.9173 63.5036 23.5673 63.4009 23.166C63.2983 22.7553 63.2469 22.3027 63.2469 21.808V17.72H64.5489V21.528C64.5489 22.4147 64.6889 23.0493 64.9689 23.432C65.2489 23.8147 65.7203 24.006 66.3829 24.006C66.5229 24.006 66.6676 24.0013 66.8169 23.992C66.9663 23.9827 67.1063 23.9733 67.2369 23.964C67.3676 23.9453 67.4843 23.9313 67.5869 23.922C67.6989 23.9033 67.7783 23.8847 67.8249 23.866V17.72H69.1269V24.79ZM74.058 17.566C74.17 17.566 74.296 17.5753 74.436 17.594C74.5853 17.6033 74.73 17.622 74.87 17.65C75.01 17.6687 75.136 17.692 75.248 17.72C75.3693 17.7387 75.458 17.7573 75.514 17.776L75.29 18.91C75.1873 18.8727 75.0147 18.8307 74.772 18.784C74.5387 18.728 74.2353 18.7 73.862 18.7C73.6193 18.7 73.3767 18.728 73.134 18.784C72.9007 18.8307 72.7467 18.8633 72.672 18.882V25H71.37V18.028C71.678 17.916 72.0607 17.8133 72.518 17.72C72.9753 17.6173 73.4887 17.566 74.058 17.566ZM83.3349 25V15.298H89.2569V16.46H84.6929V19.344H88.7529V20.478H84.6929V23.838H89.6069V25H83.3349ZM91.2489 17.93C91.5476 17.8553 91.9396 17.776 92.4249 17.692C92.9196 17.608 93.4889 17.566 94.1329 17.566C94.5996 17.566 94.9916 17.6313 95.3089 17.762C95.6262 17.8833 95.8922 18.0653 96.1069 18.308C96.1722 18.2613 96.2749 18.196 96.4149 18.112C96.5549 18.028 96.7276 17.9487 96.9329 17.874C97.1382 17.79 97.3669 17.72 97.6189 17.664C97.8709 17.5987 98.1416 17.566 98.4309 17.566C98.9909 17.566 99.4482 17.65 99.8029 17.818C100.158 17.9767 100.433 18.2053 100.629 18.504C100.834 18.8027 100.97 19.1573 101.035 19.568C101.11 19.9787 101.147 20.4267 101.147 20.912V25H99.8449V21.192C99.8449 20.7627 99.8216 20.394 99.7749 20.086C99.7376 19.778 99.6582 19.5213 99.5369 19.316C99.4249 19.1107 99.2662 18.9613 99.0609 18.868C98.8649 18.7653 98.6082 18.714 98.2909 18.714C97.8522 18.714 97.4882 18.7747 97.1989 18.896C96.9189 19.008 96.7276 19.1107 96.6249 19.204C96.6996 19.4467 96.7556 19.7127 96.7929 20.002C96.8302 20.2913 96.8489 20.5947 96.8489 20.912V25H95.5469V21.192C95.5469 20.7627 95.5236 20.394 95.4769 20.086C95.4302 19.778 95.3462 19.5213 95.2249 19.316C95.1129 19.1107 94.9542 18.9613 94.7489 18.868C94.5529 18.7653 94.3009 18.714 93.9929 18.714C93.8622 18.714 93.7222 18.7187 93.5729 18.728C93.4236 18.7373 93.2789 18.7513 93.1389 18.77C93.0082 18.7793 92.8869 18.7933 92.7749 18.812C92.6629 18.8307 92.5882 18.8447 92.5509 18.854V25H91.2489V17.93ZM105.772 24.062C106.08 24.062 106.35 24.0573 106.584 24.048C106.826 24.0293 107.027 24.0013 107.186 23.964V21.794C107.092 21.7473 106.938 21.71 106.724 21.682C106.518 21.6447 106.266 21.626 105.968 21.626C105.772 21.626 105.562 21.64 105.338 21.668C105.123 21.696 104.922 21.7567 104.736 21.85C104.558 21.934 104.409 22.0553 104.288 22.214C104.166 22.3633 104.106 22.564 104.106 22.816C104.106 23.2827 104.255 23.6093 104.554 23.796C104.852 23.9733 105.258 24.062 105.772 24.062ZM105.66 17.538C106.182 17.538 106.621 17.608 106.976 17.748C107.34 17.8787 107.629 18.07 107.844 18.322C108.068 18.5647 108.226 18.8587 108.32 19.204C108.413 19.54 108.46 19.9133 108.46 20.324V24.874C108.348 24.8927 108.189 24.9207 107.984 24.958C107.788 24.986 107.564 25.014 107.312 25.042C107.06 25.07 106.784 25.0933 106.486 25.112C106.196 25.14 105.907 25.154 105.618 25.154C105.207 25.154 104.829 25.112 104.484 25.028C104.138 24.944 103.84 24.8133 103.588 24.636C103.336 24.4493 103.14 24.2067 103 23.908C102.86 23.6093 102.79 23.25 102.79 22.83C102.79 22.4287 102.869 22.0833 103.028 21.794C103.196 21.5047 103.42 21.2713 103.7 21.094C103.98 20.9167 104.306 20.786 104.68 20.702C105.053 20.618 105.445 20.576 105.856 20.576C105.986 20.576 106.122 20.5853 106.262 20.604C106.402 20.6133 106.532 20.632 106.654 20.66C106.784 20.6787 106.896 20.6973 106.99 20.716C107.083 20.7347 107.148 20.7487 107.186 20.758V20.394C107.186 20.1793 107.162 19.9693 107.116 19.764C107.069 19.5493 106.985 19.3627 106.864 19.204C106.742 19.036 106.574 18.9053 106.36 18.812C106.154 18.7093 105.884 18.658 105.548 18.658C105.118 18.658 104.74 18.6907 104.414 18.756C104.096 18.812 103.858 18.8727 103.7 18.938L103.546 17.86C103.714 17.7853 103.994 17.7153 104.386 17.65C104.778 17.5753 105.202 17.538 105.66 17.538ZM111.924 25H110.622V17.72H111.924V25ZM111.266 16.404C111.033 16.404 110.832 16.3293 110.664 16.18C110.505 16.0213 110.426 15.8113 110.426 15.55C110.426 15.2887 110.505 15.0833 110.664 14.934C110.832 14.7753 111.033 14.696 111.266 14.696C111.499 14.696 111.695 14.7753 111.854 14.934C112.022 15.0833 112.106 15.2887 112.106 15.55C112.106 15.8113 112.022 16.0213 111.854 16.18C111.695 16.3293 111.499 16.404 111.266 16.404ZM116.347 25.14C115.544 25.1213 114.975 24.9487 114.639 24.622C114.303 24.2953 114.135 23.7867 114.135 23.096V14.36L115.437 14.136V22.886C115.437 23.1007 115.456 23.278 115.493 23.418C115.53 23.558 115.591 23.67 115.675 23.754C115.759 23.838 115.871 23.9033 116.011 23.95C116.151 23.9873 116.324 24.02 116.529 24.048L116.347 25.14ZM127.797 25C127.639 24.58 127.489 24.1693 127.349 23.768C127.209 23.3573 127.065 22.942 126.915 22.522H122.519L121.637 25H120.223C120.597 23.9733 120.947 23.026 121.273 22.158C121.6 21.2807 121.917 20.45 122.225 19.666C122.543 18.882 122.855 18.1353 123.163 17.426C123.471 16.7073 123.793 15.998 124.129 15.298H125.375C125.711 15.998 126.033 16.7073 126.341 17.426C126.649 18.1353 126.957 18.882 127.265 19.666C127.583 20.45 127.905 21.2807 128.231 22.158C128.558 23.026 128.908 23.9733 129.281 25H127.797ZM126.523 21.402C126.225 20.59 125.926 19.806 125.627 19.05C125.338 18.2847 125.035 17.552 124.717 16.852C124.391 17.552 124.078 18.2847 123.779 19.05C123.49 19.806 123.201 20.59 122.911 21.402H126.523ZM135.041 19.26C134.882 19.1293 134.653 19.0033 134.355 18.882C134.056 18.7607 133.729 18.7 133.375 18.7C133.001 18.7 132.679 18.77 132.409 18.91C132.147 19.0407 131.933 19.2273 131.765 19.47C131.597 19.7033 131.475 19.9833 131.401 20.31C131.326 20.6367 131.289 20.9867 131.289 21.36C131.289 22.2093 131.499 22.8673 131.919 23.334C132.339 23.7913 132.899 24.02 133.599 24.02C133.953 24.02 134.247 24.006 134.481 23.978C134.723 23.9407 134.91 23.9033 135.041 23.866V19.26ZM135.041 14.36L136.343 14.136V24.79C136.044 24.874 135.661 24.958 135.195 25.042C134.728 25.126 134.191 25.168 133.585 25.168C133.025 25.168 132.521 25.0793 132.073 24.902C131.625 24.7247 131.242 24.4727 130.925 24.146C130.607 23.8193 130.36 23.4227 130.183 22.956C130.015 22.48 129.931 21.948 129.931 21.36C129.931 20.8 130.001 20.2867 130.141 19.82C130.29 19.3533 130.505 18.952 130.785 18.616C131.065 18.28 131.405 18.0187 131.807 17.832C132.217 17.6453 132.684 17.552 133.207 17.552C133.627 17.552 133.995 17.608 134.313 17.72C134.639 17.832 134.882 17.9393 135.041 18.042V14.36ZM143.285 19.26C143.126 19.1293 142.898 19.0033 142.599 18.882C142.3 18.7607 141.974 18.7 141.619 18.7C141.246 18.7 140.924 18.77 140.653 18.91C140.392 19.0407 140.177 19.2273 140.009 19.47C139.841 19.7033 139.72 19.9833 139.645 20.31C139.57 20.6367 139.533 20.9867 139.533 21.36C139.533 22.2093 139.743 22.8673 140.163 23.334C140.583 23.7913 141.143 24.02 141.843 24.02C142.198 24.02 142.492 24.006 142.725 23.978C142.968 23.9407 143.154 23.9033 143.285 23.866V19.26ZM143.285 14.36L144.587 14.136V24.79C144.288 24.874 143.906 24.958 143.439 25.042C142.972 25.126 142.436 25.168 141.829 25.168C141.269 25.168 140.765 25.0793 140.317 24.902C139.869 24.7247 139.486 24.4727 139.169 24.146C138.852 23.8193 138.604 23.4227 138.427 22.956C138.259 22.48 138.175 21.948 138.175 21.36C138.175 20.8 138.245 20.2867 138.385 19.82C138.534 19.3533 138.749 18.952 139.029 18.616C139.309 18.28 139.65 18.0187 140.051 17.832C140.462 17.6453 140.928 17.552 141.451 17.552C141.871 17.552 142.24 17.608 142.557 17.72C142.884 17.832 143.126 17.9393 143.285 18.042V14.36ZM149.513 17.566C149.625 17.566 149.751 17.5753 149.891 17.594C150.04 17.6033 150.185 17.622 150.325 17.65C150.465 17.6687 150.591 17.692 150.703 17.72C150.824 17.7387 150.913 17.7573 150.969 17.776L150.745 18.91C150.642 18.8727 150.47 18.8307 150.227 18.784C149.994 18.728 149.69 18.7 149.317 18.7C149.074 18.7 148.832 18.728 148.589 18.784C148.356 18.8307 148.202 18.8633 148.127 18.882V25H146.825V18.028C147.133 17.916 147.516 17.8133 147.973 17.72C148.43 17.6173 148.944 17.566 149.513 17.566ZM151.819 21.374C151.819 20.73 151.913 20.17 152.099 19.694C152.286 19.2087 152.533 18.8073 152.841 18.49C153.149 18.1727 153.504 17.9347 153.905 17.776C154.307 17.6173 154.717 17.538 155.137 17.538C156.117 17.538 156.869 17.846 157.391 18.462C157.914 19.0687 158.175 19.9973 158.175 21.248C158.175 21.304 158.175 21.3787 158.175 21.472C158.175 21.556 158.171 21.6353 158.161 21.71H153.177C153.233 22.466 153.453 23.04 153.835 23.432C154.218 23.824 154.815 24.02 155.627 24.02C156.085 24.02 156.467 23.9827 156.775 23.908C157.093 23.824 157.331 23.7447 157.489 23.67L157.671 24.762C157.513 24.846 157.233 24.9347 156.831 25.028C156.439 25.1213 155.991 25.168 155.487 25.168C154.853 25.168 154.302 25.0747 153.835 24.888C153.378 24.692 153 24.426 152.701 24.09C152.403 23.754 152.179 23.3573 152.029 22.9C151.889 22.4333 151.819 21.9247 151.819 21.374ZM156.817 20.66C156.827 20.072 156.677 19.5913 156.369 19.218C156.071 18.8353 155.655 18.644 155.123 18.644C154.825 18.644 154.559 18.7047 154.325 18.826C154.101 18.938 153.91 19.0873 153.751 19.274C153.593 19.4607 153.467 19.6753 153.373 19.918C153.289 20.1607 153.233 20.408 153.205 20.66H156.817ZM161.74 24.062C162.272 24.062 162.664 23.992 162.916 23.852C163.177 23.712 163.308 23.488 163.308 23.18C163.308 22.8627 163.182 22.6107 162.93 22.424C162.678 22.2373 162.262 22.0273 161.684 21.794C161.404 21.682 161.133 21.57 160.872 21.458C160.62 21.3367 160.4 21.1967 160.214 21.038C160.027 20.8793 159.878 20.688 159.766 20.464C159.654 20.24 159.598 19.9647 159.598 19.638C159.598 18.994 159.836 18.4853 160.312 18.112C160.788 17.7293 161.436 17.538 162.258 17.538C162.463 17.538 162.668 17.552 162.874 17.58C163.079 17.5987 163.27 17.6267 163.448 17.664C163.625 17.692 163.779 17.7247 163.91 17.762C164.05 17.7993 164.157 17.832 164.232 17.86L163.994 18.98C163.854 18.9053 163.634 18.8307 163.336 18.756C163.037 18.672 162.678 18.63 162.258 18.63C161.894 18.63 161.576 18.7047 161.306 18.854C161.035 18.994 160.9 19.218 160.9 19.526C160.9 19.6847 160.928 19.8247 160.984 19.946C161.049 20.0673 161.142 20.1793 161.264 20.282C161.394 20.3753 161.553 20.464 161.74 20.548C161.926 20.632 162.15 20.7207 162.412 20.814C162.757 20.9447 163.065 21.0753 163.336 21.206C163.606 21.3273 163.835 21.472 164.022 21.64C164.218 21.808 164.367 22.0133 164.47 22.256C164.572 22.4893 164.624 22.7787 164.624 23.124C164.624 23.796 164.372 24.3047 163.868 24.65C163.373 24.9953 162.664 25.168 161.74 25.168C161.096 25.168 160.592 25.112 160.228 25C159.864 24.8973 159.616 24.818 159.486 24.762L159.724 23.642C159.873 23.698 160.111 23.782 160.438 23.894C160.764 24.006 161.198 24.062 161.74 24.062ZM167.988 24.062C168.52 24.062 168.912 23.992 169.164 23.852C169.425 23.712 169.556 23.488 169.556 23.18C169.556 22.8627 169.43 22.6107 169.178 22.424C168.926 22.2373 168.51 22.0273 167.932 21.794C167.652 21.682 167.381 21.57 167.12 21.458C166.868 21.3367 166.648 21.1967 166.462 21.038C166.275 20.8793 166.126 20.688 166.014 20.464C165.902 20.24 165.846 19.9647 165.846 19.638C165.846 18.994 166.084 18.4853 166.56 18.112C167.036 17.7293 167.684 17.538 168.506 17.538C168.711 17.538 168.916 17.552 169.122 17.58C169.327 17.5987 169.518 17.6267 169.696 17.664C169.873 17.692 170.027 17.7247 170.158 17.762C170.298 17.7993 170.405 17.832 170.48 17.86L170.242 18.98C170.102 18.9053 169.882 18.8307 169.584 18.756C169.285 18.672 168.926 18.63 168.506 18.63C168.142 18.63 167.824 18.7047 167.554 18.854C167.283 18.994 167.148 19.218 167.148 19.526C167.148 19.6847 167.176 19.8247 167.232 19.946C167.297 20.0673 167.39 20.1793 167.512 20.282C167.642 20.3753 167.801 20.464 167.988 20.548C168.174 20.632 168.398 20.7207 168.66 20.814C169.005 20.9447 169.313 21.0753 169.584 21.206C169.854 21.3273 170.083 21.472 170.27 21.64C170.466 21.808 170.615 22.0133 170.718 22.256C170.82 22.4893 170.872 22.7787 170.872 23.124C170.872 23.796 170.62 24.3047 170.116 24.65C169.621 24.9953 168.912 25.168 167.988 25.168C167.344 25.168 166.84 25.112 166.476 25C166.112 24.8973 165.864 24.818 165.734 24.762L165.972 23.642C166.121 23.698 166.359 23.782 166.686 23.894C167.012 24.006 167.446 24.062 167.988 24.062Z" fill="#C2D1D9"/>
</g>
</svg>
