<svg width="361" height="361" viewBox="0 0 361 361" fill="none" xmlns="http://www.w3.org/2000/svg">
<path d="M180.125 0C220.102 4.76719e-07 258.943 13.299 290.53 37.8021C322.117 62.3053 344.655 96.6202 354.594 135.342C364.533 174.063 361.309 214.991 345.428 251.678C329.548 288.366 301.914 318.728 266.879 337.982L225.699 263.051C244.104 252.937 258.621 236.987 266.963 217.714C275.306 198.441 277 176.941 271.778 156.599C266.557 136.258 254.717 118.231 238.124 105.359C221.53 92.4869 201.126 85.5006 180.125 85.5006L180.125 0Z" fill="#FFCF61"/>
<path d="M266.894 337.973C235.675 355.135 200.067 362.653 164.575 359.578C129.083 356.502 95.2993 342.971 67.4972 320.695C39.695 298.42 19.1227 268.4 8.38175 234.432C-2.3592 200.465 -2.78637 164.075 7.15424 129.864L89.2589 153.722C84.0369 171.693 84.2613 190.81 89.9038 208.654C95.5463 226.498 106.353 242.268 120.959 253.97C135.564 265.672 153.311 272.78 171.956 274.396C190.601 276.012 209.307 272.062 225.707 263.047L266.894 337.973Z" fill="#1E55BD"/>
<path d="M7.04958 130.226C16.5982 97.1065 35.4489 67.4222 61.3643 44.6964L117.737 108.981C104.123 120.919 94.2201 136.513 89.2039 153.912L7.04958 130.226Z" fill="#ECECEC"/>
<path d="M60.4372 45.515C85.1852 23.5105 115.52 8.75431 148.109 2.86817L163.306 87.0073C146.186 90.0995 130.251 97.8513 117.25 109.411L60.4372 45.515Z" fill="#D72929"/>
<path d="M147.231 3.02906C159.424 0.764282 171.818 -0.235215 184.216 0.04647L182.274 85.525C175.761 85.377 169.25 85.9021 162.845 87.0919L147.231 3.02906Z" fill="#F38FBF"/>
</svg>
