<svg width="16" height="16" viewBox="0 0 16 16" fill="none" xmlns="http://www.w3.org/2000/svg">
<path d="M8.35178 12.83H9.19611V15.1378H8.35178V12.83Z" fill="#FFEBB9"/>
<path d="M6.66311 12.83H7.50744V15.1378H6.66311V12.83Z" fill="#FFEBB9"/>
<path d="M10.7722 0.727844H5.08701C4.85386 0.727844 4.66484 0.916863 4.66484 1.15001V15.1378H5.81877V12.4078C5.81877 12.1747 6.00779 11.9857 6.24094 11.9857H9.61828C9.85143 11.9857 10.0404 12.1747 10.0404 12.4078V15.1378H11.1944V1.15001C11.1944 0.916863 11.0054 0.727844 10.7722 0.727844ZM6.66311 10.7192C6.66311 10.9523 6.47409 11.1413 6.24094 11.1413C6.00779 11.1413 5.81877 10.9523 5.81877 10.7192V9.87482C5.81877 9.64167 6.00779 9.45265 6.24094 9.45265C6.47409 9.45265 6.66311 9.64167 6.66311 9.87482V10.7192ZM6.66311 8.18614C6.66311 8.41929 6.47409 8.60831 6.24094 8.60831C6.00779 8.60831 5.81877 8.41929 5.81877 8.18614V7.34181C5.81877 7.10866 6.00779 6.91964 6.24094 6.91964C6.47409 6.91964 6.66311 7.10866 6.66311 7.34181V8.18614ZM8.35178 10.7192C8.35178 10.9523 8.16276 11.1413 7.92961 11.1413C7.69646 11.1413 7.50744 10.9523 7.50744 10.7192V9.87482C7.50744 9.64167 7.69646 9.45265 7.92961 9.45265C8.16276 9.45265 8.35178 9.64167 8.35178 9.87482V10.7192ZM8.35178 8.18614C8.35178 8.41929 8.16276 8.60831 7.92961 8.60831C7.69646 8.60831 7.50744 8.41929 7.50744 8.18614V7.34181C7.50744 7.10866 7.69646 6.91964 7.92961 6.91964C8.16276 6.91964 8.35178 7.10866 8.35178 7.34181V8.18614ZM10.0404 10.7192C10.0404 10.9523 9.85143 11.1413 9.61828 11.1413C9.38513 11.1413 9.19611 10.9523 9.19611 10.7192V9.87482C9.19611 9.64167 9.38513 9.45265 9.61828 9.45265C9.85143 9.45265 10.0404 9.64167 10.0404 9.87482V10.7192ZM10.0404 8.18614C10.0404 8.41929 9.85143 8.60831 9.61828 8.60831C9.38513 8.60831 9.19611 8.41929 9.19611 8.18614V7.34181C9.19611 7.10866 9.38513 6.91964 9.61828 6.91964C9.85143 6.91964 10.0404 7.10866 10.0404 7.34181V8.18614ZM6.66311 5.65314C6.66311 5.88629 6.47409 6.07531 6.24094 6.07531C6.00779 6.07531 5.81877 5.88629 5.81877 5.65314V4.8088C5.81877 4.57565 6.00779 4.38663 6.24094 4.38663C6.47409 4.38663 6.66311 4.57565 6.66311 4.8088V5.65314ZM8.35178 5.65314C8.35178 5.88629 8.16276 6.07531 7.92961 6.07531C7.69646 6.07531 7.50744 5.88629 7.50744 5.65314V4.8088C7.50744 4.57565 7.69646 4.38663 7.92961 4.38663C8.16276 4.38663 8.35178 4.57565 8.35178 4.8088V5.65314ZM10.0404 5.65314C10.0404 5.88629 9.85143 6.07531 9.61828 6.07531C9.38513 6.07531 9.19611 5.88629 9.19611 5.65314V4.8088C9.19611 4.57565 9.38513 4.38663 9.61828 4.38663C9.85143 4.38663 10.0404 4.57565 10.0404 4.8088V5.65314ZM6.66311 3.12013C6.66311 3.35328 6.47409 3.5423 6.24094 3.5423C6.00779 3.5423 5.81877 3.35328 5.81877 3.12013V2.27579C5.81877 2.04264 6.00779 1.85363 6.24094 1.85363C6.47409 1.85363 6.66311 2.04264 6.66311 2.27579V3.12013ZM8.35178 3.12013C8.35178 3.35328 8.16276 3.5423 7.92961 3.5423C7.69646 3.5423 7.50744 3.35328 7.50744 3.12013V2.27579C7.50744 2.04264 7.69646 1.85363 7.92961 1.85363C8.16276 1.85363 8.35178 2.04264 8.35178 2.27579V3.12013ZM10.0404 3.12013C10.0404 3.35328 9.85143 3.5423 9.61828 3.5423C9.38513 3.5423 9.19611 3.35328 9.19611 3.12013V2.27579C9.19611 2.04264 9.38513 1.85363 9.61828 1.85363C9.85143 1.85363 10.0404 2.04264 10.0404 2.27579V3.12013Z" fill="#FFEBB9"/>
<path d="M14.7124 6.35675H12.0387V15.1378H14.7124C14.9456 15.1378 15.1346 14.9488 15.1346 14.7157V6.77892C15.1346 6.54577 14.9456 6.35675 14.7124 6.35675ZM14.0088 11.8449C14.0088 12.0781 13.8198 12.2671 13.5867 12.2671C13.3535 12.2671 13.1645 12.0781 13.1645 11.8449V11.0006C13.1645 10.7674 13.3535 10.5784 13.5867 10.5784C13.8198 10.5784 14.0088 10.7674 14.0088 11.0006V11.8449ZM14.0088 9.31193C14.0088 9.54508 13.8198 9.73409 13.5867 9.73409C13.3535 9.73409 13.1645 9.54508 13.1645 9.31193V8.46759C13.1645 8.23444 13.3535 8.04542 13.5867 8.04542C13.8198 8.04542 14.0088 8.23444 14.0088 8.46759V9.31193Z" fill="#FFEBB9"/>
<path d="M1.14678 6.35675C0.913628 6.35675 0.724609 6.54577 0.724609 6.77892V14.7157C0.724609 14.9488 0.913628 15.1378 1.14678 15.1378H3.82051V6.35675H1.14678ZM2.69473 11.8449C2.69473 12.0781 2.50571 12.2671 2.27256 12.2671C2.03941 12.2671 1.85039 12.0781 1.85039 11.8449V11.0006C1.85039 10.7674 2.03941 10.5784 2.27256 10.5784C2.50571 10.5784 2.69473 10.7674 2.69473 11.0006V11.8449ZM2.69473 9.31193C2.69473 9.54508 2.50571 9.73409 2.27256 9.73409C2.03941 9.73409 1.85039 9.54508 1.85039 9.31193V8.46759C1.85039 8.23444 2.03941 8.04542 2.27256 8.04542C2.50571 8.04542 2.69473 8.23444 2.69473 8.46759V9.31193Z" fill="#FFEBB9"/>
</svg>
