<svg width="32" height="32" viewBox="0 0 32 32" fill="none" xmlns="http://www.w3.org/2000/svg">
<path d="M24.9107 6.51793L15.4286 16.0001L24.9107 25.4822C25.1368 25.7083 25.25 25.9762 25.25 26.2857C25.25 26.5952 25.1368 26.8631 24.9107 27.0892L21.9465 30.0535C21.7203 30.2797 21.4525 30.3927 21.1429 30.3927C20.8334 30.3927 20.5656 30.2797 20.3394 30.0535L7.08937 16.8035C6.86318 16.5774 6.75012 16.3095 6.75012 16C6.75012 15.6904 6.86325 15.4226 7.08937 15.1964L20.3394 1.94643C20.5656 1.7203 20.8334 1.60718 21.1429 1.60718C21.4525 1.60718 21.7203 1.7203 21.9465 1.94643L24.9107 4.91074C25.1368 5.13687 25.25 5.40474 25.25 5.71424C25.25 6.0238 25.1368 6.29162 24.9107 6.5178V6.51793Z" fill="#006634"/>
</svg>
