<svg width="32" height="32" viewBox="0 0 32 32" fill="none" xmlns="http://www.w3.org/2000/svg">
<path d="M7.08925 25.4821L16.5714 15.9999L7.08925 6.5178C6.86319 6.29168 6.75 6.0238 6.75 5.7143C6.75 5.40474 6.86319 5.13693 7.08925 4.91074L10.0535 1.94649C10.2797 1.7203 10.5475 1.60724 10.8571 1.60724C11.1666 1.60724 11.4344 1.7203 11.6606 1.94649L24.9106 15.1965C25.1368 15.4226 25.2499 15.6905 25.2499 16C25.2499 16.3096 25.1368 16.5774 24.9106 16.8036L11.6606 30.0536C11.4344 30.2797 11.1666 30.3928 10.8571 30.3928C10.5475 30.3928 10.2797 30.2797 10.0535 30.0536L7.08925 27.0892C6.86319 26.8631 6.75 26.5952 6.75 26.2857C6.75 25.9762 6.86319 25.7084 7.08925 25.4822V25.4821Z" fill="#006634"/>
</svg>
