<svg width="34" height="34" viewBox="0 0 34 34" fill="none" xmlns="http://www.w3.org/2000/svg">
<path d="M17.1089 8.08771C12.3974 8.08771 8.59707 11.888 8.59707 16.5995C8.59707 21.311 12.3974 25.1113 17.1089 25.1113C21.8204 25.1113 25.6207 21.311 25.6207 16.5995C25.6207 11.888 21.8204 8.08771 17.1089 8.08771ZM17.1089 22.1333C14.0642 22.1333 11.5751 19.6516 11.5751 16.5995C11.5751 13.5474 14.0568 11.0657 17.1089 11.0657C20.161 11.0657 22.6427 13.5474 22.6427 16.5995C22.6427 19.6516 20.1536 22.1333 17.1089 22.1333ZM27.9542 7.73953C27.9542 8.84333 27.0653 9.72488 25.9689 9.72488C24.8651 9.72488 23.9835 8.83592 23.9835 7.73953C23.9835 6.64314 24.8725 5.75418 25.9689 5.75418C27.0653 5.75418 27.9542 6.64314 27.9542 7.73953ZM33.5917 9.75451C33.4658 7.09503 32.8583 4.73928 30.91 2.79838C28.9691 0.857478 26.6134 0.250021 23.9539 0.116676C21.2129 -0.0388921 12.9974 -0.0388921 10.2565 0.116676C7.60439 0.242613 5.24864 0.85007 3.30033 2.79097C1.35202 4.73187 0.751974 7.08762 0.618629 9.7471C0.463061 12.4881 0.463061 20.7036 0.618629 23.4445C0.744566 26.104 1.35202 28.4598 3.30033 30.4007C5.24864 32.3416 7.59699 32.949 10.2565 33.0824C12.9974 33.2379 21.2129 33.2379 23.9539 33.0824C26.6134 32.9564 28.9691 32.349 30.91 30.4007C32.8509 28.4598 33.4584 26.104 33.5917 23.4445C33.7473 20.7036 33.7473 12.4955 33.5917 9.75451ZM30.0507 26.3855C29.4729 27.8375 28.3543 28.9561 26.8949 29.5413C24.7095 30.4081 19.5239 30.2081 17.1089 30.2081C14.6939 30.2081 9.50085 30.4007 7.32289 29.5413C5.87092 28.9635 4.75231 27.8449 4.16707 26.3855C3.30033 24.2002 3.50035 19.0145 3.50035 16.5995C3.50035 14.1845 3.30774 8.99149 4.16707 6.81353C4.7449 5.36156 5.86351 4.24294 7.32289 3.65771C9.50826 2.79097 14.6939 2.99099 17.1089 2.99099C19.5239 2.99099 24.7169 2.79838 26.8949 3.65771C28.3469 4.23554 29.4655 5.35415 30.0507 6.81353C30.9174 8.99889 30.7174 14.1845 30.7174 16.5995C30.7174 19.0145 30.9174 24.2076 30.0507 26.3855Z" fill="white"/>
</svg>
