<svg width="34" height="34" viewBox="0 0 34 34" fill="none" xmlns="http://www.w3.org/2000/svg">
<path d="M7.74322 33.1872H0.862647V11.0298H7.74322V33.1872ZM4.29923 8.00733C2.09905 8.00733 0.314453 6.18496 0.314453 3.98477C0.314453 2.92795 0.734276 1.9144 1.48157 1.16711C2.22886 0.419823 3.2424 0 4.29923 0C5.35606 0 6.3696 0.419823 7.11689 1.16711C7.86418 1.9144 8.284 2.92795 8.284 3.98477C8.284 6.18496 6.49867 8.00733 4.29923 8.00733ZM33.495 33.1872H26.6292V22.4011C26.6292 19.8305 26.5774 16.534 23.0519 16.534C19.4746 16.534 18.9264 19.3268 18.9264 22.2159V33.1872H12.0532V11.0298H18.6523V14.0523H18.7486C19.6672 12.3114 21.9111 10.4742 25.2587 10.4742C32.2223 10.4742 33.5024 15.0598 33.5024 21.0158V33.1872H33.495Z" fill="white"/>
</svg>
