<svg width="19" height="17" viewBox="0 0 19 17" fill="none" xmlns="http://www.w3.org/2000/svg">
<path d="M9.3361 6.3188C9.49877 6.37906 9.65836 6.23158 9.60443 6.07467C9.23433 4.99754 7.89433 4.59572 6.64865 5.55135C5.9934 6.05408 5.74717 6.1609 5.74096 6.1636C6.17293 6.5715 6.66643 7.94027 7.74342 8.09165C8.92982 8.2948 9.97985 7.19242 9.12077 6.68797C8.55579 6.35625 7.89059 6.16356 7.17756 6.16356C7.92508 6.00443 8.67132 6.07266 9.3361 6.3188Z" fill="#FFEBB9"/>
<path d="M14.7083 5.55127C12.558 3.90167 11.1867 6.5031 12.0391 6.24523C12.6445 6.06209 13.3064 6.02219 13.9702 6.16351C12.8454 6.16351 11.8085 6.65036 11.1172 7.44281C11.174 6.19747 11.2599 5.41796 11.3594 4.8381C11.934 4.81944 12.6998 4.38123 13.1204 3.61444C13.8454 2.38899 13.5092 1.13251 13.401 0.339661C12.8345 0.860683 10.3597 0.250182 9.37866 1.83791C8.9453 2.53928 9.07125 3.39275 9.52714 4.01731C9.67145 4.21503 10.0165 4.12016 10.0263 3.88021C10.0692 2.83642 10.6192 2.0478 11.6446 1.61101C11.1845 2.17408 10.8824 2.80447 10.7263 3.45603C10.4837 4.471 10.2303 5.13681 10.1373 8.37184C10.1278 8.69991 10.4092 8.97148 10.7567 8.96736C11.0083 8.96438 11.2237 8.81362 11.3205 8.59429C11.4676 8.26072 11.7071 7.91548 12.0968 7.59918C12.4671 7.98576 13.0306 8.19146 13.6137 8.0916C14.6861 7.94088 15.1866 6.56912 15.6161 6.16348C15.6098 6.16085 15.3636 6.05403 14.7083 5.55127Z" fill="#FFEBB9"/>
<path d="M17.8693 9.58208C17.1971 9.15134 16.4655 9.45828 16.1295 9.6415L11.913 12.5561L9.44417 12.5566L8.82696 11.9737H11.0943C11.7762 11.9737 12.5399 11.5542 12.5399 10.8076C12.5399 10.0149 11.7762 9.6415 11.0943 9.6415H10.2446C9.61344 9.6415 8.87583 9.69466 8.35576 9.43172C7.86164 9.19425 7.29265 9.05913 6.68528 9.05913C5.66538 9.05913 4.75256 9.44313 4.12706 10.0487L0.803223 13.139L4.50649 16.6366L5.74091 14.8878H11.5742C12.1963 14.8878 12.7968 14.6723 13.2618 14.2821L17.9115 10.381C18.17 10.1642 18.1554 9.76544 17.8693 9.58208Z" fill="#FFEBB9"/>
</svg>
