<svg width="18" height="19" viewBox="0 0 18 19" fill="none" xmlns="http://www.w3.org/2000/svg">
<path d="M7.48667 18.9262L8.58785 17.5666C9.02336 17.5595 9.49428 17.517 9.88023 17.3329C11.2576 16.6743 11.2399 15.1412 11.2363 15.0739C11.2328 14.8969 11.208 14.9181 10.2131 13.7497H13.0138C13.0067 15.5236 12.7553 16.1751 12.6526 16.43C12.3198 17.2692 11.0982 18.6536 9.28184 18.8873C8.97379 18.9262 8.12047 18.9298 7.48667 18.9262ZM14.5824 12.9884C15.9491 12.9884 16.6537 12.5068 17.1919 11.8943L10.9779 11.8837L10.3618 12.9919L14.5824 12.9884ZM13.0386 5.06063V11.0197H10.4361L9.2783 12.9848H9.04815C7.19633 12.9848 6.99097 10.9843 6.98389 10.8993C6.9414 10.432 6.2297 10.4886 6.27219 10.9631C6.32176 11.5225 6.58378 12.3794 7.20695 12.9848H3.98486C3.08197 12.9848 0.061702 12.0359 0.196251 8.94838V1.39595C0.196251 0.829424 0.539704 0.80818 0.727365 0.801098H3.63079C3.63787 0.801098 3.64141 0.804639 3.64849 0.804639C3.80074 0.790476 5.42241 0.730283 5.42241 2.35195C5.42241 2.82287 6.13764 2.82641 6.13764 2.35195C6.13764 1.70753 5.9429 1.19058 5.5782 0.804639H8.55952C12.4083 0.790476 13.0386 3.616 13.0386 5.06063ZM8.34708 7.04346L10.6132 8.0809C11.0841 6.46985 9.11896 5.54217 8.34708 7.04346Z" fill="#FFEBB9"/>
</svg>
