<svg width="19" height="13" viewBox="0 0 19 13" fill="none" xmlns="http://www.w3.org/2000/svg">
<path d="M17.9002 11.5939C17.6333 11.4083 17.3983 11.1805 17.2046 10.9194C16.7409 10.3925 16.1507 9.73903 15.0547 9.73903C13.9586 9.73903 13.3895 10.3714 12.9047 10.9405C12.4199 11.5096 12.1037 11.8468 11.3871 11.8468C10.6705 11.8468 10.3121 11.4463 9.86949 10.9405C9.42687 10.4346 8.83667 9.73903 7.71952 9.73903C6.60238 9.73903 6.05438 10.3714 5.56956 10.9405C5.08478 11.5096 4.76859 11.8468 4.05195 11.8468C3.33531 11.8468 2.97697 11.4463 2.53435 10.9405C2.23346 10.5431 1.85297 10.2129 1.4172 9.97089C1.20765 9.86611 0.952878 9.95104 0.848103 10.1606C0.743328 10.3701 0.828253 10.6249 1.0378 10.7297C1.36875 10.9292 1.66141 11.1862 1.90199 11.4885C2.38677 12.0576 2.95587 12.69 4.05195 12.69C5.14804 12.69 5.7171 12.0576 6.20192 11.4885C6.6867 10.9194 7.00288 10.5822 7.71952 10.5822C8.43617 10.5822 8.79451 10.9827 9.23713 11.4885C9.67975 11.9944 10.27 12.69 11.3871 12.69C12.5042 12.69 13.0522 12.0576 13.5371 11.4885C14.0218 10.9194 14.338 10.5822 15.0547 10.5822C15.7713 10.5822 16.1296 10.9827 16.5723 11.4885C16.8179 11.8039 17.1092 12.081 17.4365 12.3105C17.6343 12.4386 17.8986 12.382 18.0267 12.184C18.1547 11.9861 18.0981 11.7219 17.9002 11.5939Z" fill="#FFEBB9"/>
<path d="M17.9002 8.43219C17.6333 8.24664 17.3983 8.01882 17.2046 7.7577C16.7409 7.23076 16.1507 6.57734 15.0547 6.57734C13.9586 6.57734 13.3895 7.20966 12.9047 7.7788C12.4199 8.34791 12.1037 8.68515 11.3871 8.68515C10.6705 8.68515 10.3121 8.28465 9.86949 7.7788C9.42687 7.27292 8.83667 6.57734 7.71952 6.57734C6.60238 6.57734 6.05438 7.20966 5.56956 7.7788C5.08478 8.34791 4.76859 8.68515 4.05195 8.68515C3.33531 8.68515 2.97697 8.28465 2.53435 7.7788C2.23346 7.38141 1.85297 7.05119 1.4172 6.8092C1.20765 6.70442 0.952878 6.78935 0.848103 6.9989C0.743328 7.20845 0.828253 7.46323 1.0378 7.568C1.36875 7.76747 1.66141 8.02446 1.90199 8.32681C2.38677 8.89591 2.95587 9.52827 4.05195 9.52827C5.14804 9.52827 5.7171 8.89595 6.20192 8.32681C6.6867 7.7577 7.00288 7.42046 7.71952 7.42046C8.43617 7.42046 8.79451 7.82096 9.23713 8.32681C9.67975 8.83269 10.27 9.52827 11.3871 9.52827C12.5042 9.52827 13.0522 8.89595 13.5371 8.32681C14.0218 7.7577 14.338 7.42046 15.0547 7.42046C15.7713 7.42046 16.1296 7.82096 16.5723 8.32681C16.8179 8.64222 17.1092 8.91927 17.4365 9.14883C17.6343 9.27688 17.8986 9.22028 18.0267 9.02235C18.1547 8.8245 18.0981 8.56024 17.9002 8.43219Z" fill="#FFEBB9"/>
<path d="M17.9002 5.0596C17.6333 4.87405 17.3983 4.64623 17.2046 4.38512C16.7409 3.85818 16.1507 3.20475 15.0547 3.20475C13.9586 3.20475 13.3895 3.83708 12.9047 4.40622C12.4199 4.97536 12.1037 5.31256 11.3871 5.31256C10.6705 5.31256 10.3121 4.91206 9.86949 4.40622C9.42687 3.90038 8.83667 3.20475 7.71952 3.20475C6.60238 3.20475 6.05438 3.83708 5.56956 4.40622C5.08478 4.97532 4.76859 5.31256 4.05195 5.31256C3.33531 5.31256 2.97697 4.91206 2.53435 4.40622C2.23346 4.00882 1.85297 3.6786 1.4172 3.43661C1.20765 3.33184 0.952878 3.41676 0.848103 3.62631C0.743328 3.83586 0.828253 4.09064 1.0378 4.19542C1.36875 4.39488 1.66141 4.65188 1.90199 4.95422C2.38677 5.52332 2.95587 6.15568 4.05195 6.15568C5.14804 6.15568 5.7171 5.52336 6.20192 4.95422C6.6867 4.38512 7.00288 4.04788 7.71952 4.04788C8.43617 4.04788 8.79451 4.44838 9.23713 4.95422C9.67975 5.46006 10.27 6.15568 11.3871 6.15568C12.5042 6.15568 13.0522 5.52336 13.5371 4.95422C14.0219 4.38508 14.338 4.04788 15.0547 4.04788C15.7713 4.04788 16.1296 4.44838 16.5723 4.95422C16.8179 5.26963 17.1092 5.54668 17.4365 5.77624C17.6343 5.9043 17.8986 5.84769 18.0267 5.64976C18.1547 5.45191 18.0981 5.18765 17.9002 5.0596Z" fill="#FFEBB9"/>
<path d="M1.03797 1.03381C1.36892 1.23328 1.66158 1.49027 1.90215 1.79262C2.38693 2.36172 2.95603 2.99408 4.05212 2.99408C5.1482 2.99408 5.71726 2.36176 6.20208 1.79262C6.68687 1.22352 7.00305 0.886274 7.71969 0.886274C8.43633 0.886274 8.79467 1.28678 9.23729 1.79262C9.67992 2.2985 10.2701 2.99408 11.3873 2.99408C12.5044 2.99408 13.0524 2.36176 13.5372 1.79262C14.022 1.22352 14.3382 0.886274 15.0548 0.886274C15.7715 0.886274 16.1298 1.28678 16.5724 1.79262C16.8181 2.10803 17.1093 2.38508 17.4366 2.61468C17.6345 2.74273 17.8988 2.68609 18.0268 2.4882C18.1549 2.29031 18.0983 2.02605 17.9003 1.898C17.6334 1.71245 17.3985 1.48463 17.2048 1.22352C16.741 0.696574 16.1509 0.0431519 15.0548 0.0431519C13.9587 0.0431519 13.3896 0.675473 12.9048 1.24462C12.42 1.81372 12.1039 2.15096 11.3872 2.15096C10.6706 2.15096 10.3122 1.75046 9.86962 1.24462C9.42699 0.738734 8.83679 0.0431519 7.71965 0.0431519C6.60251 0.0431519 6.0545 0.675473 5.56968 1.24462C5.0849 1.81372 4.76872 2.15096 4.05208 2.15096C3.33544 2.15096 2.97718 1.75046 2.53451 1.24458C2.23362 0.84718 1.85313 0.516959 1.41737 0.274972C1.20782 0.170197 0.953043 0.255123 0.848268 0.464673C0.743493 0.674223 0.828459 0.92904 1.03797 1.03381Z" fill="#FFEBB9"/>
</svg>
